<svg width="105" height="45" viewBox="0 0 105 45" fill="none" xmlns="http://www.w3.org/2000/svg">
<rect x="60" width="45" height="45" fill="#8D86C9"/>
<path fill-rule="evenodd" clip-rule="evenodd" d="M74.7502 22.5C74.7502 22.7569 74.8523 23.0033 75.034 23.185C75.2156 23.3667 75.462 23.4688 75.719 23.4688L86.9429 23.4688L82.7831 27.6266C82.693 27.7167 82.6216 27.8236 82.5728 27.9413C82.5241 28.059 82.499 28.1851 82.499 28.3125C82.499 28.4399 82.5241 28.566 82.5728 28.6837C82.6216 28.8014 82.693 28.9083 82.7831 28.9984C82.8732 29.0884 82.9801 29.1599 83.0978 29.2086C83.2155 29.2574 83.3416 29.2825 83.469 29.2825C83.5963 29.2825 83.7225 29.2574 83.8402 29.2086C83.9578 29.1599 84.0648 29.0884 84.1548 28.9984L89.9673 23.1859C90.0576 23.0959 90.1291 22.989 90.178 22.8713C90.2268 22.7536 90.252 22.6274 90.252 22.5C90.252 22.3726 90.2268 22.2464 90.178 22.1287C90.1291 22.011 90.0576 21.9041 89.9673 21.8141L84.1548 16.0016C83.9729 15.8197 83.7262 15.7175 83.469 15.7175C83.2117 15.7175 82.965 15.8197 82.7831 16.0016C82.6012 16.1835 82.499 16.4303 82.499 16.6875C82.499 16.9448 82.6012 17.1915 82.7831 17.3734L86.9429 21.5313L75.719 21.5313C75.462 21.5313 75.2156 21.6333 75.034 21.815C74.8523 21.9967 74.7502 22.2431 74.7502 22.5Z" fill="white"/>
<rect width="45" height="45" fill="#8D86C9"/>
<path fill-rule="evenodd" clip-rule="evenodd" d="M30.2498 22.5C30.2498 22.7569 30.1477 23.0033 29.966 23.185C29.7844 23.3667 29.538 23.4688 29.281 23.4688L18.0571 23.4688L22.2169 27.6266C22.307 27.7167 22.3784 27.8236 22.4272 27.9413C22.4759 28.059 22.501 28.1851 22.501 28.3125C22.501 28.4399 22.4759 28.566 22.4272 28.6837C22.3784 28.8014 22.307 28.9083 22.2169 28.9984C22.1268 29.0884 22.0199 29.1599 21.9022 29.2086C21.7845 29.2574 21.6584 29.2825 21.531 29.2825C21.4037 29.2825 21.2775 29.2574 21.1598 29.2086C21.0422 29.1599 20.9352 29.0884 20.8452 28.9984L15.0327 23.1859C14.9424 23.0959 14.8709 22.989 14.822 22.8713C14.7732 22.7536 14.748 22.6274 14.748 22.5C14.748 22.3726 14.7732 22.2464 14.822 22.1287C14.8709 22.011 14.9424 21.9041 15.0327 21.8141L20.8452 16.0016C21.0271 15.8197 21.2738 15.7175 21.531 15.7175C21.7883 15.7175 22.035 15.8197 22.2169 16.0016C22.3988 16.1835 22.501 16.4303 22.501 16.6875C22.501 16.9448 22.3988 17.1915 22.2169 17.3734L18.0571 21.5313L29.281 21.5313C29.538 21.5313 29.7844 21.6333 29.966 21.815C30.1477 21.9967 30.2498 22.2431 30.2498 22.5Z" fill="white"/>
</svg>
